<svg xmlns="http://www.w3.org/2000/svg" viewBox="0 0 256 256">
  <rect width="256" height="256" fill="#B3001B"/>
  <path d="M128 40 L145 95 L202 95 L157 128 L175 183 L128 150 L81 183 L99 128 L54 95 L111 95 Z" fill="#B59410" opacity="0.9"/>
  <circle cx="128" cy="128" r="8" fill="#B59410"/>
  <circle cx="128" cy="80" r="6" fill="#B59410" opacity="0.7"/>
  <circle cx="128" cy="176" r="6" fill="#B59410" opacity="0.7"/>
  <circle cx="80" cy="128" r="6" fill="#B59410" opacity="0.7"/>
  <circle cx="176" cy="128" r="6" fill="#B59410" opacity="0.7"/>
  <circle cx="98" cy="98" r="5" fill="#B59410" opacity="0.6"/>
  <circle cx="158" cy="98" r="5" fill="#B59410" opacity="0.6"/>
  <circle cx="98" cy="158" r="5" fill="#B59410" opacity="0.6"/>
  <circle cx="158" cy="158" r="5" fill="#B59410" opacity="0.6"/>
  <line x1="128" y1="74" x2="128" y2="86" stroke="#B59410" stroke-width="2" opacity="0.5"/>
  <line x1="128" y1="170" x2="128" y2="182" stroke="#B59410" stroke-width="2" opacity="0.5"/>
  <line x1="74" y1="128" x2="86" y2="128" stroke="#B59410" stroke-width="2" opacity="0.5"/>
  <line x1="170" y1="128" x2="182" y2="128" stroke="#B59410" stroke-width="2" opacity="0.5"/>
  <line x1="92" y1="92" x2="104" y2="104" stroke="#B59410" stroke-width="2" opacity="0.5"/>
  <line x1="152" y1="152" x2="164" y2="164" stroke="#B59410" stroke-width="2" opacity="0.5"/>
  <line x1="152" y1="92" x2="164" y2="104" stroke="#B59410" stroke-width="2" opacity="0.5"/>
  <line x1="92" y1="152" x2="104" y2="164" stroke="#B59410" stroke-width="2" opacity="0.5"/>
  <path d="M 115 105 Q 115 128 115 151" stroke="#FFD700" stroke-width="4" fill="none" stroke-linecap="round"/>
  <path d="M 125 151 Q 135 140 145 151" stroke="#FFD700" stroke-width="3" fill="none" stroke-linecap="round"/>
  <path d="M 125 105 Q 135 116 145 105" stroke="#FFD700" stroke-width="3" fill="none" stroke-linecap="round"/>
</svg>